<?xml version="1.0" encoding="utf-8"?>
<!-- Generator: Adobe Illustrator 21.1.0, SVG Export Plug-In . SVG Version: 6.00 Build 0)  -->
<svg version="1.1" id="Calque_1" xmlns="http://www.w3.org/2000/svg" xmlns:xlink="http://www.w3.org/1999/xlink" x="0px" y="0px"
	 viewBox="0 0 432 432" style="enable-background:new 0 0 432 432;" xml:space="preserve">
<style type="text/css">
	.st0{fill:#1B1B1B;}
	.st1{fill:#921E23;}
	.st2{fill:#DAB0B3;}
	.st3{fill:#343434;}
	.st4{fill:#C69C6C;}
	.st5{fill:#AD9DAF;}
	.st6{fill:#C7696C;}
	.st7{fill:#A5A56E;}
	.st8{fill:#509B89;}
	.st9{fill:#5A5151;}
	.st10{fill:#7B484D;}
	.st11{fill:#D2A1A6;}
	.st12{fill:#966C71;}
	.st13{fill:#4E4D4D;}
	.st14{fill:#83A67F;}
	.st15{fill:#CFAC75;}
	.st16{fill:#877979;}
	.st17{fill:#BCBCD1;}
	.st18{fill:#B4B1A2;}
	.st19{fill:#D5A7AA;}
	.st20{fill:#D1BC8C;}
	.st21{fill:#88AF8F;}
	.st22{fill:#CCB27F;}
	.st23{fill:#B8CFBC;}
	.st24{fill:#CA8A8C;}
	.st25{fill:#5B6781;}
	.st26{fill:#676767;}
	.st27{fill:#2B3447;}
	.st28{fill:#D1C6E3;}
	.st29{fill:#DDCD72;}
	.st30{fill:#8BA1C9;}
	.st31{fill:#E299C2;}
	.st32{fill:#BC8B59;}
	.st33{fill:#913E41;}
	.st34{fill:#BFABB3;}
	.st35{fill:#AB5D7B;}
	.st36{fill:#5D2A3E;}
	.st37{fill:#A49D78;}
	.st38{fill:#A4787A;}
	.st39{fill:#DEC968;}
	.st40{fill:#D19962;}
	.st41{fill:#AB585E;}
	.st42{fill:#7FAEDD;}
	.st43{fill:#CDCCCC;}
	.st44{fill:#F9B03D;}
	.st45{fill:#778DAE;}
	.st46{fill:#A494A7;}
	.st47{fill:#DDB58F;}
	.st48{fill:#615757;}
	.st49{fill:#B0C0D9;}
	.st50{fill:#A08B99;}
	.st51{fill:#8198AD;}
	.st52{fill:#D5B9A2;}
	.st53{fill:#6D91A9;}
	.st54{fill:#020203;}
	.st55{fill:#9489C1;}
	.st56{fill:#A57C9C;}
	.st57{fill:#824B70;}
	.st58{fill:#917C95;}
	.st59{fill:#A67D52;}
	.st60{fill:#5F7C50;}
	.st61{fill:#413939;}
	.st62{fill:#96AF8F;}
	.st63{fill:#E38CBA;}
	.st64{fill:#5D675F;}
	.st65{fill:#886873;}
	.st66{fill:#B2191D;}
	.st67{fill:#D99B9D;}
	.st68{fill:#8D5859;}
	.st69{fill:#E1AFB1;}
	.st70{fill:#AF8358;}
	.st71{fill:#FBC063;}
	.st72{fill:#A98199;}
	.st73{fill:#55735C;}
	.st74{fill:#C7A866;}
	.st75{fill:#6D8372;}
	.st76{fill:#A57B7C;}
	.st77{fill:#998F8F;}
	.st78{fill:#929D95;}
	.st79{fill:#581111;}
	.st80{fill:#D09D69;}
	.st81{fill:#8D5459;}
	.st82{fill:#C6905C;}
	.st83{fill:#5C7460;}
	.st84{fill:#BA999A;}
	.st85{fill:#B7B6D1;}
	.st86{fill:#539FA3;}
	.st87{fill:#B4B4B4;}
	.st88{fill:#746458;}
	.st89{fill:#CDA780;}
	.st90{fill:#EB5B28;}
	.st91{fill:#E2CE6A;}
	.st92{fill:#B6A9D3;}
	.st93{fill:#4F998B;}
	.st94{fill:#BAACD5;}
	.st95{fill:#60A88D;}
	.st96{fill:#879FAE;}
	.st97{fill:#35444D;}
	.st98{fill:#C18F5C;}
	.st99{fill:#9CA578;}
	.st100{fill:#E8C2C4;}
	.st101{fill:#C1292E;}
	.st102{fill:#AF9BB2;}
	.st103{fill:#617F63;}
	.st104{fill:#B6555C;}
	.st105{fill:#CC9864;}
	.st106{fill:#D3989E;}
	.st107{fill:#78B1B7;}
	.st108{fill:#C091A7;}
</style>
<g>
	<path class="st9" d="M309.9,313.5c4.4-5.6,8.1-11.7,11.5-18c3-5.5,5.7-11.1,7.7-17c2.3-6.8,4-13.7,5.5-20.6
		c1.2-5.6,2.2-11.2,2.9-16.8c0.1-0.9,0.2-1.7,0.3-2.6c0.7,0.1,1.2,0.1,1.8,0.2c0.8,0.1,1.5,0.2,2.3,0.2c1.9,0,3.4-1.4,3.5-3.1
		c0.1-1.8-1.1-3.3-3-3.6c-0.4-0.1-0.8-0.1-1.1-0.2c-1-0.1-1.9-0.2-2.9-0.4c0-0.2,0-0.4,0-0.5c0.3-6.5,0-13.1-1.1-19.5
		c-1.3-7.5-3.4-14.7-6.7-21.6c-1.4-3-3-5.9-4.4-8.9c-5.5-11.9-12.6-22.8-21.8-32.4c-0.1-0.1-0.2-0.2-0.3-0.4c0.4-0.4,0.7-0.8,1-1.2
		c0.7-0.8,1.5-1.7,2.2-2.5c0.7-0.8,1-1.7,0.9-2.7c-0.3-2.7-3.3-3.9-5.5-2.2c-0.9,0.7-1.7,1.6-2.5,2.4c-0.4,0.4-0.8,0.9-1.2,1.3
		c-1.2-1.1-2.4-2.1-3.6-3.1c-8.7-7.3-18.3-13.1-28.4-18c-12.8-6.2-26.3-10-40.4-11.5c-0.8-0.1-1.7-0.2-2.6-0.3c0-1.4,0-2.7,0-4.1
		c0.2-0.1,0.4-0.1,0.6-0.2c7.2-2.7,11.5-7.8,12.4-15.5c0.6-5.5-0.6-10.7-3.2-15.4c-2.4-4.3-5.7-7.5-10.4-9.1
		c-5.1-1.6-10.2-1.8-15.2,0.1c-8.4,3.2-13,9.5-14.1,18.2c-0.9,7.1,1.8,13.2,6.6,18.3c1.4,1.4,2.9,2.6,4.7,3.5c1.1,0.5,2.2,1,3.4,1.5
		c0,0.7,0.1,1.5,0.1,2.3c-0.7,0.1-1.2,0.1-1.7,0.1c-0.6,0-1.1,0.1-1.7,0.1c-6.3,0.5-12.5,1.6-18.7,3.3c-11.1,3.1-21.6,7.6-31.6,13.4
		c-8.4,4.8-16.2,10.3-23.2,17.1c-0.1,0.1-0.3,0.2-0.5,0.4c-0.9-1-1.7-1.9-2.5-2.8c-0.4-0.4-0.8-0.8-1.2-1.2
		c-1.1-0.7-2.4-0.8-3.5-0.1c-1.2,0.7-1.7,1.8-1.6,3.2c0.1,0.7,0.3,1.3,0.8,1.9c0.8,1,1.6,1.9,2.4,2.8c0.3,0.3,0.6,0.6,0.9,1
		c-0.3,0.3-0.5,0.5-0.7,0.8c-2.3,2.7-4.8,5.2-7,8c-9.8,12.3-16.2,26.3-20.1,41.4c-1.2,4.9-2.1,9.8-2.8,14.8c-0.6,4.5-1.1,9-1.3,13.6
		c-0.1,1.2-0.1,2.3-0.2,3.5c-0.7,0-1.3,0-1.9,0c-0.9,0-1.9,0-2.8,0.2c-1.6,0.3-2.7,1.7-2.6,3.3c0.1,1.6,1.2,2.9,2.8,3.1
		c0.9,0.1,1.8,0.1,2.7,0.2c0.6,0,1.2,0,1.8,0.1c0,0.9,0,1.7,0.1,2.5c0.3,3.4,0.6,6.8,0.8,10.2c0.3,4.6,1,9.1,2.1,13.6
		c2,8.4,5,16.5,8.7,24.2c5.2,10.8,11.6,20.8,19.8,29.6c0.1,0.1,0.1,0.2,0.2,0.3c-0.6,0.6-1.1,1.2-1.7,1.9c-0.4,0.4-0.8,0.8-1.1,1.3
		c-0.9,1.4-0.8,3.2,0.4,4.3c1.2,1.1,3,1.3,4.3,0.3c0.7-0.5,1.3-1.2,1.9-1.8c0.4-0.4,0.7-0.7,1-1.1c0.2,0.1,0.3,0.3,0.4,0.4
		c3.3,2.8,6.5,5.7,9.8,8.4c10.5,8.3,21.9,14.9,34.9,18.6c3.5,1,6.9,2.3,10.5,2.9c3.9,0.7,7.8,1.4,11.8,1.9c3.4,0.4,6.9,0.7,10.3,1
		c1.1,0.1,2.3,0.1,3.5,0.2c0,0.3,0.1,0.5,0.1,0.7c0.1,1.1,0.1,2.1,0.3,3.2c0.1,0.7,0.2,1.4,0.5,2c0.6,1.3,1.6,2,3,2
		c1.4,0,2.4-0.6,3-1.9c0.3-0.6,0.4-1.2,0.4-1.9c0-1-0.1-2-0.1-3c0-0.4,0-0.8,0-1.2c0.5,0,1-0.1,1.5-0.1c3.2-0.3,6.3-0.4,9.5-0.8
		c3.5-0.4,7-1,10.5-1.5c5.6-0.9,11.1-2,16.5-3.6c4.2-1.2,8.4-2.4,12.4-4.3c11.3-5.4,21.2-12.7,29.8-21.7c0.3-0.3,0.6-0.7,1-1.1
		c0.3,0.3,0.6,0.6,0.9,0.9c0.6,0.6,1.1,1.2,1.7,1.8c1.3,1.2,3.2,1.2,4.5,0.1c1.3-1.1,1.5-2.9,0.6-4.4c-0.4-0.5-0.8-1-1.2-1.6
		c-0.5-0.7-1.1-1.4-1.7-2.1c0.2-0.2,0.3-0.3,0.4-0.5C307.6,316.3,308.8,314.9,309.9,313.5z M208.4,94.7c0,1.6,0.1,3.2,0.1,4.8
		c0,0.2,0,0.4,0,0.7c-0.9-0.4-1.6-0.8-2.2-1.4c-2.8-2.7-4.7-5.8-5.3-9.7c-0.9-5.6,1-10.3,5.2-14c2.9-2.6,6.5-3.6,10.3-3.4
		c1.4,0.1,2.8,0.3,4.2,0.6c1.8,0.4,3.3,1.4,4.7,2.7c2.6,2.5,4,5.5,4.7,8.9c0.6,2.7,0.7,5.4,0,8.1c-0.8,3.2-2.9,5.4-5.7,7
		c-0.1,0.1-0.2,0.1-0.4,0.1c-0.1-0.9-0.1-1.7-0.2-2.5c-0.2-1.2-0.3-2.4-0.6-3.5c-0.7-2.5-2.2-3.8-4.8-4c-2.1-0.2-4.2,0-6.2,0.5
		c-0.1,0-0.3,0.1-0.4,0.1C209.5,90.5,208.3,92.1,208.4,94.7z M288.9,300.4c-0.5,2-1.3,3.9-2.6,5.6c-1.9,2.5-4.6,3.7-7.7,4
		c-3.3,0.3-6.4-0.5-9.2-2.3c-0.1-0.1-0.2-0.1-0.4-0.2c-0.1,0.4-0.2,0.7-0.2,1c-0.4,4-1.7,7.7-3.8,11.2c-0.7,1.1-1.5,2.1-2.5,2.9
		c-2.3,1.9-5.2,1.9-7.5,0.1c-1.5-1.2-2.6-2.7-3.4-4.5c-1-2.2-1.5-4.6-1.8-7c-0.5-4.2-0.7-8.3-0.7-12.5c0-0.9-0.1-1.8-0.2-2.7
		c-0.2-0.9-0.5-1.1-1.4-1c-0.7,0.1-1.4,0.3-2,0.6c-1.6,0.8-3.2,1.7-4.8,2.6c0.1,0.7,0.1,1.4,0.2,2c0.3,4.4-0.3,8.6-1.5,12.9
		c-0.9,3.3-1.9,6.5-3.3,9.6c-1.1,2.4-2.6,4.6-4.3,6.6c-1.7,2-3.7,3.5-6.3,4.1c-4,0.9-7.5,0-10.4-2.9c-1.7-1.7-2.9-3.8-3.8-6.1
		c-0.1-0.3-0.2-0.6-0.4-1.1c-0.7,2.2-1.4,4.2-2.1,6.2c-0.8,2.4-1.7,4.8-2.7,7.1c-0.5,1.2-1.3,2.2-2,3.2c-0.5,0.6-1.2,1.2-1.8,1.6
		c-1.2,0.8-2.5,0.9-3.8,0.4c-1.1-0.4-2-1.2-2.8-2.1c-1.1-1.4-1.8-3-2.3-4.7c-0.9-3-1.3-6.1-1.3-9.2c0-2.6,0.2-5.2,0.3-7.7
		c0.1-2.7,0.2-5.4,0.2-8.1c0-0.9-0.3-1.2-1.3-1.1c-0.7,0.1-1.4,0.3-1.9,0.6c-1,0.5-1.9,1.1-2.8,1.8c-2.6,2.1-4.7,4.6-6.6,7.3
		c-0.9,1.3-1.7,2.7-2.6,4.1c-0.5,0.8-1,1.6-1.5,2.3c-1.4,1.7-3.5,1.5-4.6-0.4c-1-1.7-1.3-3.5-1.2-5.4c0.1-1.5,0.4-3.1,0.6-4.6
		c0-0.2,0-0.3,0.1-0.6c-0.4,0.2-0.6,0.3-0.9,0.5c-1.9,1.1-3.8,2.3-5.7,3.4c-0.9,0.5-1.9,1-2.9,1.4c-3.2,1.1-6.1,0-7.6-3.1
		c-1-1.9-1.2-4-1.1-6.2c0.2-4.6,1.6-8.9,3.6-13c0.9-1.9,2-3.8,3-5.7c0-0.1-0.1-0.2-0.2-0.2c-3.5-2.8-6.9-5.6-10.4-8.3
		c-3.1-2.4-6.4-4.5-10.2-5.8c-0.9-0.3-1.9-0.5-2.8-0.8c-0.3-0.1-0.5-0.1-0.8-0.2c-0.3-0.2-0.7-0.4-0.6-0.8c0.1-0.3,0.3-0.6,0.5-0.7
		c0.4-0.2,0.9-0.3,1.4-0.4c1.9-0.2,3.7,0.2,5.4,0.8c2.9,1,5.7,2.5,8.1,4.3c3.1,2.3,6.1,4.6,9.1,6.9c0.8,0.6,1.6,1.3,2.5,2
		c0.2-0.3,0.4-0.6,0.6-0.8c1.5-2.3,3.2-4.5,5.1-6.5c0.7-0.7,1.4-1.5,2.2-2.1c0.5-0.4,1.1-0.7,1.7-0.8c1.4-0.3,2.6,0.8,2.4,2.2
		c-0.1,0.5-0.2,1-0.5,1.4c-0.3,0.6-0.7,1.1-1.1,1.6c-1.8,2.4-3.6,4.9-5.4,7.3c-0.2,0.3-0.4,0.6-0.6,0.9c3.5,2.4,7,4.5,11.1,5.7
		c0.3-0.6,0.7-1.1,1-1.6c1.3-2.2,2.8-4.3,4.7-6.1c2-1.9,4.4-3.4,7.1-4.1c1.4-0.4,2.9-0.4,4.3,0c3.3,0.9,4.9,4.1,3.7,7.3
		c-0.5,1.4-1.3,2.6-2.4,3.6c-2.7,2.7-5.9,4.3-9.7,4.8c-1.2,0.2-2.5,0.2-3.9,0.3c-2.8,5.8-4.5,12-5.4,18.4c0.1,0,0.1,0.1,0.2,0.1
		c0.2-0.2,0.4-0.5,0.6-0.7c1.5-1.9,2.9-3.9,4.4-5.8c1.7-2.1,3.7-4,6-5.6c1.1-0.7,2.2-1.4,3.5-1.8c1-0.3,2.1-0.4,3.2-0.2
		c1.4,0.2,2.5,1,3.3,2.2c0.7,1,1,2.2,1.2,3.4c0.3,2.4,0.3,4.7,0.1,7.1c-0.3,4.9-0.4,9.7-0.2,14.6c0,1.2,0.2,2.4,0.5,3.6
		c0.2,0.7,0.5,1.4,0.9,2.1c0.4,0.6,0.8,0.7,1.3,0.2c0.6-0.5,1.2-1,1.6-1.7c0.8-1.4,1.6-2.9,2.3-4.4c1.6-3.8,3.1-7.7,4.7-11.5
		c0.3-0.8,0.3-1.5,0.3-2.3c-0.4-4.1,0.2-8,1.8-11.8c0.6-1.3,1.3-2.5,2.3-3.6c1.2-1.4,2.6-2.3,4.3-2.9c3.3-1.1,6.3,0.5,7.3,3.8
		c0.6,2.1,0.6,4.2-0.2,6.2c-1.3,3.7-4,6.3-7.3,8.3c-0.5,0.3-1.1,0.4-1.7,0.7c0,0.3,0,0.5,0.1,0.8c0.6,2.4,1.6,4.7,3,6.7
		c0.9,1.3,2,2.4,3.6,2.8c1.5,0.4,3,0.3,4.4-0.6c1.4-0.8,2.6-2,3.6-3.2c1.9-2.3,3.2-5,4.1-7.8c1.2-3.9,2.1-7.9,2.6-11.9
		c0.2-1.8,0.4-4.5,0-6.2c-0.3,0.1-0.6,0.2-1,0.3c-2,0.8-4,0.9-6,0.5c-3.3-0.7-5.5-3.3-5.9-6.6c-0.4-3.6,2.3-7.2,5.9-7.6
		c1.9-0.2,3.6,0.3,5.1,1.5c1.4,1.1,2.3,2.6,3,4.1c0.5,1,0.8,2,1.2,3.1c0.2-0.1,0.5-0.3,0.7-0.4c1.6-0.8,3.1-1.7,4.7-2.4
		c0.7-0.3,1.4-0.5,2.1-0.7c2-0.4,3.6,0.3,4.8,1.9c1,1.3,1.6,2.8,1.9,4.5c0.4,2.6,0.8,5.2,1.1,7.8c0.3,3.1,0.4,6.2,1.1,9.2
		c0.3,1.2,0.7,2.3,1.1,3.5c0.2,0.4,0.4,0.9,0.7,1.3c0.6,0.9,1.3,1.1,2.3,0.5c0.9-0.5,1.5-1.3,2-2.2c0.9-1.6,1.5-3.3,2.1-5.1
		c0.1-0.3,0.2-0.7,0.3-1c0.5-1.6,1-3.3,1.6-4.9c0.1-0.4,0.3-0.8,0.5-1.4c-0.2-0.2-0.5-0.3-0.8-0.6c-4.4-4.6-6.8-10.1-7-16.5
		c-0.1-1.9,0.2-3.7,1-5.4c1.8-4.4,6.8-5.4,10.1-3.5c2.5,1.4,3.9,3.7,4.3,6.5c0.3,1.8,0,3.6-0.6,5.3c-1,2.7-2.4,5-4.6,6.9
		c-0.1,0.1-0.2,0.1-0.3,0.2c0.2,0.2,0.3,0.4,0.4,0.6c1.2,1.6,2.6,3,4.3,4.1c1.6,1,3.3,1.6,5.1,1.8c2.5,0.2,4.5-0.7,5.8-2.9
		c1.2-1.9,1.8-3.9,2.1-6.1c0.4-2.8,0.3-5.6,0.1-8.4c-0.1-1.8-0.2-3.6-0.2-5.3c0-0.3,0.1-0.7,0.2-0.9c0.2-0.4,0.6-0.7,1.1-0.6
		c0.5,0,0.8,0.3,1,0.7c0.1,0.2,0.1,0.4,0.2,0.6c0.4,3.7,0.8,7.3,0.7,11C289.7,295.4,289.5,297.9,288.9,300.4z M218.3,203.4
		c0,1.5,0.4,2.9,1,4.2c0.7,1.4,1.7,2.7,2.7,4c1.1,1.4,2.3,2.9,3.4,4.3c1.7,2.3,2.8,4.9,3.1,7.9c0.5,4.3-2.6,7.9-7,8.1
		c-2.3,0.1-4.2-0.7-5.7-2.5c-0.6-0.7-1.1-1.5-1.6-2.2c-0.3-0.4-0.4-0.9-0.3-1.4c0.2-0.6,0.5-0.9,1.1-1.1c0.6-0.2,1.1,0.1,1.5,0.5
		c0.4,0.5,0.8,1,1.3,1.5c0.3,0.3,0.7,0.6,1.1,0.8c1.2,0.7,2.3,0.1,2.4-1.3c0.1-0.7-0.1-1.4-0.3-2.1c-0.4-1.4-1.1-2.6-1.9-3.8
		c-1.2-1.7-2.5-3.4-3.7-5.1c-1.3-1.9-2.4-3.8-3.1-6c-0.7-2.2-1-4.4-0.5-6.7c0.4-1.4,1-2.7,2-3.8c1.6-1.6,3.5-2.1,5.7-1.5
		c2.1,0.6,3.7,1.8,4.8,3.7c0.3,0.6,0.5,1.2,0.6,1.8c0.1,0.5,0,1-0.5,1.3c-0.5,0.3-0.9,0.1-1.3-0.2c-0.4-0.3-0.8-0.7-1.2-1
		c-0.6-0.4-1.2-0.9-1.9-1.3c-1.1-0.5-1.6-0.2-1.7,1C218.3,202.9,218.3,203.2,218.3,203.4z M238.1,252.9c0.2,5.8,0.3,11.5,0.5,17.3
		c0,0.9-0.1,1.9-0.2,2.8c-0.2,1.7-0.9,2.7-3,3.3c-1.1,0.3-2.2,0.2-3.4,0c-1-0.2-1.8-0.8-2-1.9c-0.2-0.9-0.4-1.8-0.5-2.7
		c-0.5-4.8-1-9.6-1.1-14.4c-0.1-4.5-0.2-9.1-0.3-13.6c0-0.1,0-0.2,0-0.4c-0.3-0.1-0.6-0.2-0.9-0.3c-0.3-0.1-0.6-0.2-0.8-0.4
		c-1.1-0.7-1.1-2,0.1-2.5c0.7-0.3,1.4-0.4,2.1-0.5c2.5-0.2,5.1-0.3,7.6-0.4c0.9,0,1.9,0,2.8,0c0.7,0,1.3,0.3,1.8,0.7
		c1.2,0.9,1.2,2.3,0.1,3.2c-0.4,0.3-1,0.6-1.5,0.8c-0.5,0.2-1,0.2-1.6,0.3c0,0.2-0.1,0.5,0,0.7C238,247.5,238.1,250.2,238.1,252.9z
		 M211.9,240.4c1.1,0.3,1.8,1.1,2.1,2.2c0.3,1.3,0.4,2.6,0.5,4c0.2,3.3,0.2,6.7,0.4,10c0.3,3.3,0.8,6.6,1.2,9.9
		c0.1,0.5,0.3,1.1,0.6,1.6c0.4,0.7,0.9,0.7,1.3,0c0.6-1,0.9-2.2,1.1-3.4c0.7-3.9,0.7-7.9,0.5-11.9c-0.2-3.4-0.7-6.8-0.6-10.2
		c0-0.4,0-0.8,0.2-1.2c0.3-0.8,1.1-1.3,1.9-1.3c0.9,0.1,1.5,0.5,1.7,1.4c0.2,0.9,0.3,1.9,0.4,2.8c0.2,4.2,0.4,8.4,0.2,12.6
		c-0.2,3.8-0.4,7.7-1.4,11.4c-0.3,1.1-0.7,2.3-1.1,3.4c-0.2,0.6-0.6,1.2-0.9,1.7c-1.6,2.3-3.9,2.8-6.4,1.8c-1.9-0.8-3.4-2.2-4.5-4.1
		c-1.1-1.9-1.7-4-2.2-6.2c-0.6-2.9-0.8-5.8-1-8.7c-0.2-2.6-0.2-5.2-0.3-7.8c0,0,0.1,0,0.1,0c0-1.7,0-3.4,0-5.1c0-0.4,0-0.8,0.1-1.2
		c0.2-1.1,0.7-1.7,1.8-1.9C208.9,239.9,210.4,240,211.9,240.4z M208,228.8c0,0.3-0.1,0.6-0.1,0.9c-0.3,1.2-1,1.9-2.2,1.9
		c-1.4,0.1-2.7,0.1-4.1,0c-1.3-0.1-2.2-1-2.5-2.4c-0.2-1.3-0.4-2.6-0.5-3.9c-0.3-3.4-0.5-6.7-0.8-10.1c-0.1-1.7-0.3-3.4-0.2-5.1
		c0-2.6,0.2-5.3,0.3-7.9c0-0.3,0.1-0.6,0.2-0.9c0.4-1.7,1.1-2.3,2.8-2.5c0.5-0.1,1.1-0.1,1.6-0.3c1-0.2,2-0.2,3,0.1
		c1.3,0.3,2,1.1,2.1,2.5c0.1,1.5,0.1,2.9,0.2,4.4c0.1,3.2,0.1,6.3,0.2,9.5c0,0,0,0,0.1,0c0.1,3.4,0.1,6.9,0.2,10.3
		C208,226.6,208,227.7,208,228.8z M199.7,242.7c1.2,1.3,2,2.8,2.6,4.4c0.7,2.1,1.1,4.2,1.4,6.4c0.3,3.2,0.3,6.5-0.1,9.7
		c-0.3,2-0.8,4-1.6,5.8c-0.5,1-1,2-1.7,2.8c-1.7,2.2-4.4,2.9-7.1,1.9c-1.7-0.6-3-1.7-4.1-3.1c-1.8-2.3-2.9-5-3.5-7.9
		c-0.4-2-0.6-4-0.6-6.1c0-3,0.4-5.9,1.4-8.8c0.8-2.2,2-4.2,3.8-5.7c1-0.8,2-1.3,3.2-1.6C195.9,240.1,198,240.9,199.7,242.7z
		 M302.5,219.3c-2.7,0.5-5-0.3-7.1-2.1c-1.4-1.3-2.5-2.8-3.4-4.5c-0.2-0.3-0.3-0.6-0.5-0.9c-0.2,0.1-0.4,0.2-0.5,0.3
		c-2.1,1.8-4,3.7-5.6,6c-1.5,2.1-2.2,4.4-2.1,6.9c0.2,3.8,1.9,6.6,5.4,8.3c2.2,1.1,4.6,1.4,7,1.4c0.6,0,1.2,0.1,1.8,0.3
		c0.5,0.1,0.9,0.5,0.9,1.1c0,0.6-0.3,0.9-0.8,1.2c-0.4,0.1-0.7,0.3-1.1,0.4c-3.3,0.2-6.5-0.1-9.5-1.6c-4.7-2.4-7.8-6-8.6-11.3
		c-0.7-4.1,0.1-8,2.7-11.5c0.6-0.8,1.2-1.5,1.8-2.4c-0.5,0.2-0.9,0.3-1.4,0.5c-2.4,0.8-4.7,1.4-7.2,1.1c-0.7-0.1-1.4-0.2-2.1-0.4
		c-2.2-0.8-3.5-2.7-3.5-5.4c0-1.2,0.2-2.4,0.5-3.5c0.7-2,1.6-3.8,3-5.4c2.5-2.9,5.4-5.5,8.4-7.8c3.9-2.9,8-5.8,11.9-8.7
		c1.1-0.8,2.2-1.6,3.2-2.4c1-0.8,1-1.3,0-2.1c-0.9-0.7-1.9-1.1-3-1.3c-2.3-0.5-4.6-1-6.9-1.4c-0.7-0.1-1.3-0.2-2-0.4
		c-0.5-0.2-0.8,0-1.1,0.4c-2.2,2.5-4.3,5.1-6.6,7.5c-2.9,3.1-6.1,6-9.7,8.3c-2.1,1.4-4.3,2.4-6.8,2.8c-3.4,0.6-6-0.7-7.4-3.8
		c-1-2.2-1.1-4.5-0.7-6.8c0.2-1.3,0.6-2.5,0.9-3.7c0.1-0.2,0.1-0.4,0.2-0.8c-0.3,0.2-0.5,0.3-0.7,0.4c-0.9,0.6-1.9,1.3-2.9,1.8
		c-3.3,1.8-6.5,0.1-7.7-2.8c-0.7-1.7-0.8-3.5-0.7-5.3c0-0.2,0-0.5,0.1-0.9c-0.3,0.4-0.6,0.6-0.8,0.8c-1.1,1-2.1,2-3.2,3
		c-0.7,0.6-1.6,1-2.5,1.1c-1.8,0.2-3.2-0.4-4.2-1.9c-0.4-0.5-0.6-1.1-1-1.7c-0.1,0.2-0.2,0.3-0.3,0.5c-0.8,1.6-1.6,3.2-2.4,4.8
		c-0.5,1.1-1.2,2-2,2.9c-2,2-4.6,2-6.6-0.1c-0.8-0.9-1.4-1.9-1.9-3c-1.1-2.6-1.7-5.3-2.1-8.1c-0.7-4.8-0.7-9.6-0.9-14.4
		c-0.1-3.3-0.4-6.6-1.3-9.8c-0.1-0.5-0.3-1-0.5-1.5c-0.5-0.1-0.9,0.2-1.1,0.5c-0.6,0.7-1.2,1.4-1.7,2.2c-1,1.8-1.5,3.7-1.9,5.7
		c-0.8,4.3-1,8.7-1,13c0,2.1,0,4.2-0.1,6.2c0,0.4-0.1,0.8-0.2,1.2c-0.4,1.6-1.9,2.3-3.4,1.6c-1.1-0.6-2-1.5-2.5-2.6
		c-0.7-1.5-1.4-3.1-2-4.6c-0.2-0.4-0.3-0.8-0.6-1.2c-0.1,0.3-0.1,0.7-0.2,1c-0.5,1.5-0.9,3.1-1.5,4.6c-0.3,0.7-0.7,1.4-1.2,2
		c-1.6,2.2-3.9,2.9-6.5,2.2c-1.7-0.5-3.2-1.4-4.5-2.6c-1.8-1.7-3.2-3.8-4.2-6.1c-0.1-0.3-0.3-0.6-0.4-0.9c-1.1,0.6-2.2,1.3-3.4,1.7
		c-1.2,0.4-2.4,0.6-3.7,0.9c0.4,1.1,0.9,2.2,1.3,3.3c1,2.9,1.9,5.7,2.4,8.7c0.1,0.7,0.2,1.4,0.1,2.1c0,2.4-1.4,3.8-3.7,4.1
		c-1.5,0.2-2.9,0-4.3-0.3c-0.3-0.1-0.6-0.1-1.1-0.2c0.3,0.4,0.5,0.6,0.7,0.9c0.7,1.1,1.4,2.1,2,3.2c1.6,3.2,0.5,5.8-2.9,6.8
		c-2.3,0.7-4.6,0.8-7,0.6c-1.1-0.1-2.3-0.4-3.4-0.5c-0.3,0-0.5-0.1-0.9-0.1c0.3,0.4,0.5,0.7,0.8,1c1.1,1.5,2.1,3.1,2.6,5
		c0.6,2.5-0.2,4.6-2.1,6.2c-1.4,1.1-2.9,1.8-4.8,2.1c0.2,0.2,0.4,0.4,0.6,0.6c1.2,1.1,2.4,2.2,3.6,3.3c0.5,0.5,0.9,1.1,1.2,1.7
		c0.8,1.6,0.8,3.2-0.2,4.7c-0.8,1.3-1.9,2.2-3.4,2.8c-1.9,0.8-3.9,1.1-6,1.2c-1.6,0.1-3.1,0-4.7,0c-0.2,0-0.3,0-0.7,0
		c0.3,0.3,0.6,0.5,0.8,0.7c1.3,1.2,2.5,2.5,3.5,4c1,1.5,1.4,3.2,1.1,5c-0.2,1.4-0.9,2.5-2,3.4c-1.5,1.2-3.1,1.8-5,2
		c-6.4,0.5-11.9-1.5-16.5-6c-1.3-1.2-2.2-2.7-2.7-4.4c-0.9-3.1,0.2-6.2,2.9-8.2c0.7-0.5,1.5-0.9,2.3-1.4c-0.2-0.1-0.3-0.3-0.5-0.4
		c-1-0.7-2-1.3-2.9-2c-0.7-0.5-1.2-1.2-1.7-1.9c-0.9-1.6-0.1-3.2,1.8-3.3c0.8,0,1.5,0.2,2.3,0.4c0.8,0.3,1.6,0.7,2.3,1.1
		c3.5,1.8,7,3.6,10.7,5c3.5,1.3,7.2,2.2,11,1.9c1.1-0.1,2.3-0.3,3.4-0.6c0.7-0.2,1.3-0.6,1.9-1c0.7-0.4,0.9-1.1,0.6-1.9
		c-0.2-0.6-0.5-1.2-0.9-1.7c-0.9-1.3-2.1-2.2-3.1-3.3c-1.1-1.1-2.4-1.4-3.9-1.5c-4.7-0.3-9.1-1.8-13.1-4.5c-1.9-1.3-3.4-2.8-4.6-4.8
		c-1.1-1.9-1.5-3.8-1-6c0.4-1.8,1.4-3.2,2.9-4.2c1.3-0.9,2.8-1.6,4.4-1.9c0.2,0,0.3-0.1,0.7-0.2c-0.4-0.2-0.7-0.4-0.9-0.5
		c-3.1-1.7-6-3.6-8.7-5.9c-1.3-1.2-2.6-2.5-3.8-3.9c-0.7-0.7-1.2-1.7-1.6-2.6c-0.3-0.7-0.5-1.4-0.5-2.1c-0.1-2.1,1.2-3.6,3.4-3.8
		c1.2-0.1,2.4,0.1,3.5,0.4c1.7,0.6,3.3,1.4,4.8,2.4c4.2,2.9,8,6.2,11.3,10.1c1.2,1.4,2.2,2.8,3,4.4c0.2,0.3,0.4,0.6,0.7,0.7
		c4.1,1.7,8.2,3.1,12.5,4c2,0.4,3.9,0.5,5.9,0.3c0.3,0,0.6-0.1,0.9-0.2c0.4-0.1,0.7-0.4,0.6-0.9c-0.1-0.6-0.1-1.1-0.3-1.6
		c-0.4-0.9-0.9-1.8-1.5-2.6c-0.6-1-1.3-1.9-2-2.8c-0.7-0.9-1.9-1.1-2.9-1.7c-3.6-2.1-6.9-4.6-9.7-7.7c-0.5-0.6-1-1.2-1.4-1.8
		c-0.3-0.4-0.5-0.9-0.6-1.4c-0.4-1.6,0.8-3,2.4-2.8c0.7,0.1,1.3,0.3,1.9,0.7c1,0.6,1.9,1.3,2.7,2c3.2,2.6,6.4,5.2,9.9,7.4
		c1.4,0.9,2.9,1.6,4.4,2.4c0.5,0.3,1.1,0.4,1.7,0.6c0.8,0.2,1,0,1.1-0.8c0-0.4,0.1-0.7,0-1.1c-0.1-0.7-0.1-1.5-0.3-2.2
		c-0.8-3.4-1.9-6.7-3.3-9.9c-0.2-0.5-0.5-0.7-1.1-0.8c-3.1-0.4-5.7-1.7-7.8-4.1c-0.6-0.7-1.1-1.5-1.4-2.5c-0.3-1.2-0.2-2.3,0.8-3.2
		c0.9-0.9,2-1,3.1-0.6c0.7,0.3,1.4,0.7,2.1,1.2c1.8,1.5,3.1,3.4,4.3,5.4c0.2,0.3,0.4,0.7,0.5,1c0.3,0.7,0.8,0.9,1.5,0.9
		c2.2-0.1,4.2-0.7,6-2c0.1-0.1,0.2-0.1,0.3-0.2c0,0,0.1-0.1,0.1-0.2c-0.2-0.7-0.4-1.4-0.5-2.1c-0.6-3-0.8-6,0.1-9
		c0.4-1.3,1-2.6,1.9-3.7c2-2.6,5.2-2.7,7.4-0.2c1.4,1.5,1.8,3.3,1.3,5.4c-0.6,2.4-2,4.2-4.1,5.4c-0.1,0.1-0.3,0.2-0.4,0.2
		c0,0,0,0-0.1,0.2c0.3,1,0.6,2.1,1,3.2c0.9,2.4,2.1,4.6,3.7,6.6c0.5,0.7,1.2,1.3,1.9,1.8c1,0.7,2,0.6,2.8-0.3
		c0.5-0.6,1.1-1.3,1.3-2.1c0.8-2.2,1.5-4.4,2.2-6.6c0.1-0.3,0-0.7,0-1c-0.8-3-1.3-6-1.7-9c-0.1-1.4-0.2-2.8,0.1-4.2
		c0.1-0.4,0.2-0.9,0.5-1.2c0.8-1.5,2.6-1.6,3.7-0.3c0.4,0.5,0.7,1.2,0.9,1.8c0.5,1.7,0.9,3.3,1.2,5c0.8,3.7,1.7,7.4,2.5,11
		c0.1,0.3,0.2,0.6,0.3,0.9c0.1,0,0.1,0,0.2,0c0-0.3,0.1-0.6,0.1-0.8c0-3.7,0.3-7.5,0.8-11.2c0.5-3.6,1.3-7.1,3.2-10.3
		c0.5-0.9,1.2-1.7,2-2.4c2.2-1.8,4.6-1.5,6.5,0.6c1.4,1.7,2.2,3.7,2.6,5.9c0.7,3.2,0.7,6.5,0.9,9.8c0.2,5.3,0.5,10.6,0.8,15.9
		c0.1,1.3,0.4,2.6,0.7,3.9c0.1,0.4,0.3,0.8,0.5,1.2c0.3,0.7,0.7,0.8,1.2,0.2c0.5-0.4,0.9-1,1.2-1.5c0.7-1.1,1.3-2.2,1.9-3.3
		c0.9-1.6,1.8-3.3,2.6-5c0.2-0.3,0.3-0.7,0.3-1.1c0.1-3.9,0.9-7.7,2.1-11.3c1.6-4.9,3.7-9.7,5.9-14.4c0.2-0.3,0.3-0.7,0.5-1.1
		c-0.1-0.1-0.2-0.2-0.2-0.3c-2.1-1.6-4.3-3.1-6.4-4.7c-3.5-2.6-7.5-4.2-11.8-5.3c-0.9-0.2-1.9-0.2-2.9-0.3c-0.2,0-0.4,0-0.5,0
		c-0.2-0.1-0.6-0.2-0.6-0.4c-0.1-0.2,0-0.6,0.2-0.8c0.4-0.3,0.8-0.5,1.3-0.6c1.5-0.4,2.9-0.3,4.4-0.1c4.7,0.7,9,2.4,12.9,5.1
		c1.7,1.2,3.4,2.3,5.1,3.5c0.1,0.1,0.3,0.2,0.4,0.3c0.2-0.3,0.4-0.6,0.5-0.9c1.4-2.5,2.9-5,4.7-7.2c0.6-0.7,1.2-1.4,1.9-2.1
		c0.5-0.5,1.1-0.8,1.7-0.8c1.1,0,2,0.7,2.1,1.8c0.1,0.5,0,1.1-0.2,1.6c-0.5,1.3-1.1,2.6-1.7,3.8c-1.1,2.1-2.4,4.1-3.5,6.2
		c-0.1,0.3-0.3,0.5-0.4,0.8c0.2,0.1,0.4,0.3,0.6,0.4c2.5,1.3,5.2,2.4,8,2.9c2.4,0.4,4.7,0.4,7-0.6c0.4-0.2,0.8-0.5,1.3-0.6
		c0.4-0.2,0.8-0.3,1.3-0.4c0.4,0,0.8,0.2,1,0.6c0.2,0.4,0,0.8-0.3,1.1c-0.2,0.2-0.4,0.4-0.6,0.5c-2.7,1.4-5.5,2.5-8.5,2.5
		c-2.8,0-5.5-0.5-8.1-1.4c-1.1-0.4-2.2-0.9-3.3-1.3c-0.1,0.1-0.2,0.2-0.2,0.3c-2.8,5.8-5.3,11.7-7.2,17.9c-0.7,2.4-1.2,4.9-1.4,7.4
		c-0.1,0.9,0,1.8,0.1,2.7c0.2,1,0.8,1.3,1.7,0.9c0.5-0.2,1-0.4,1.3-0.7c1.6-1.4,3.1-2.8,4.6-4.2c0.2-0.2,0.3-0.5,0.4-0.8
		c0.9-3.4,2.4-6.5,4.5-9.3c0.7-0.9,1.5-1.7,2.4-2.5c0.4-0.3,0.9-0.6,1.4-0.7c1.2-0.3,2.3,0.4,2.4,1.6c0.1,0.5,0,1-0.1,1.5
		c-0.3,1-0.8,2.1-1.2,3.1c-0.8,1.8-1.7,3.5-2.5,5.2c-1.2,2.8-2.1,5.7-2.1,8.8c0,0.4,0,0.8,0.1,1.2c0.2,1,0.8,1.5,1.8,1.2
		c0.8-0.3,1.6-0.6,2.3-1c1.5-1,2.8-2,4.2-3.1c0.3-0.2,0.4-0.6,0.6-0.9c1.9-3.3,3.9-6.5,6.4-9.3c0.7-0.8,1.5-1.6,2.4-2.3
		c0.7-0.6,1.5-0.9,2.4-0.9c1.6,0,2.7,1.1,2.5,2.7c-0.1,0.7-0.4,1.3-0.7,1.9c-0.5,0.8-1.1,1.6-1.7,2.3c-3.2,4-5.9,8.3-7.9,13.1
		c-0.8,2-1.5,4-1.8,6c-0.2,1-0.2,2,0.1,3c0.2,1,0.8,1.6,1.8,1.7c0.8,0,1.6,0,2.4-0.2c2.7-0.7,5.1-2,7.3-3.7c2.5-1.9,4.7-4.1,6.8-6.4
		c2-2.2,3.9-4.6,5.7-7c-0.2-0.1-0.4-0.2-0.6-0.3c-0.5-0.3-1-0.5-1.5-0.7c-2.7-1.5-4.2-3.8-4.6-6.8c-0.6-4.2,0.8-7.8,3.7-10.9
		c1.2-1.3,2.6-2.3,4.2-3c1-0.4,2-0.6,3.1-0.5c2.4,0.2,4.2,2,4.6,4.6c0.4,2.3,0.2,4.6-0.4,6.9c-0.8,2.9-2.1,5.6-3.8,8.1
		c-0.2,0.2-0.3,0.5-0.5,0.8c0.3,0.1,0.6,0.3,0.8,0.3c1.6,0.5,3.2,0.9,4.9,1.5c1.8,0.6,3.5,1.1,5.2,1.8c0.7,0.3,1.4,0.7,2,1.1
		c1.8,1.1,2.5,2.7,2,5.1c-0.2,1.1-0.7,2.1-1.4,2.9c-0.8,0.9-1.6,1.9-2.6,2.7c-1.6,1.3-3.3,2.5-4.9,3.7c-3.3,2.5-6.6,5-9.8,7.5
		c-2.5,2-4.6,4.5-6.6,7c-0.7,0.9-1.2,1.8-1.6,2.9c-0.4,1.3-0.1,1.9,1.3,2.2c1.2,0.3,2.3,0.1,3.4-0.1c2.7-0.6,5.5-1.2,8.2-1.8
		c0.4-0.1,0.7-0.3,1-0.5c2-1.6,4.1-3.2,6.4-4.3c2.1-1,4.2-1.8,6.6-2c1.5-0.1,2.9,0,4.3,0.4c4.8,1.4,6.6,5.4,6.2,9.5
		C310.2,215.7,306.3,218.5,302.5,219.3z"/>
	<path class="st9" d="M310.5,149.4c4.2,4,7.9,8.5,11.2,13.3c3.8,5.5,7.3,11.2,10,17.3c3.4,7.6,6.3,15.5,8.4,23.6
		c1.6,6.4,2.8,12.8,2.5,19.3c0,1.3,0,2.6,0,3.8c0,0.8,0.2,1.6,0.3,2.4c0.2,0.7,0.7,1.2,1.4,1.3c0.8,0.1,1.3-0.2,1.7-0.8
		c0.3-0.4,0.5-0.8,0.6-1.3c0.2-1,0.4-2,0.5-3.1c0.3-5.6-0.1-11.2-1.3-16.7c-2.1-10.4-5.5-20.4-9.8-30c-3.4-7.6-7.9-14.7-12.8-21.5
		c-3-4.1-6.3-7.8-9.9-11.3c-0.2-0.2-0.3-0.3-0.5-0.5c-0.9-0.7-2.2-0.6-2.9,0.2c-0.8,0.8-1,2-0.3,3
		C309.9,148.8,310.2,149.1,310.5,149.4z"/>
	<path class="st9" d="M303.2,330.4c-0.7,0.2-1.3,0.6-1.8,1.1c-1.6,1.4-3.2,2.9-4.9,4.2c-5.5,4-11.2,7.8-17.2,10.9
		c-11.1,5.8-22.7,9.8-34.9,12.4c-5.1,1.1-10.2,1.9-15.4,1.9c-1.4,0-2.7,0-4.1,0c-0.6,0-1.1,0.1-1.6,0.4c-1.5,0.6-1.7,2.3-0.4,3.2
		c0.4,0.3,1,0.6,1.5,0.7c1,0.2,2.1,0.3,3.1,0.3c5.2,0.2,10.3-0.5,15.3-1.4c11.3-2.1,22.1-5.6,32.6-10.3c8.7-3.9,16.7-8.9,24.3-14.6
		c1.8-1.3,3.4-2.9,5-4.4c0.6-0.5,0.9-1.2,1.1-1.9c0.2-0.8,0-1.5-0.6-2C304.7,330.3,304,330.1,303.2,330.4z"/>
	<path class="st9" d="M208.5,362.5c-0.7-0.2-1.4-0.2-2.1-0.2c-6.1-0.5-12.2-1.2-18.2-2.5c-11.6-2.4-22.5-6.7-33-12.1
		c-4.2-2.2-8-5-11.9-7.7c-3.7-2.6-7.1-5.4-10.2-8.6c-0.3-0.3-0.6-0.5-0.9-0.8c-0.9-0.7-1.8-0.7-2.6-0.2c-0.8,0.6-1.1,1.6-0.7,2.6
		c0.2,0.5,0.5,1,0.9,1.4c0.9,1,1.8,2,2.8,2.9c5.8,5.1,12.1,9.5,18.7,13.4c5.3,3.1,11,5.5,16.8,7.8c7.1,2.8,14.4,4.9,21.9,6.2
		c3.4,0.6,6.9,1.1,10.4,1.7c1.8,0.3,3.6,0.7,5.4,0.6c0.9-0.1,1.7-0.1,2.6-0.2c0.9-0.2,1.5-0.7,1.7-1.6
		C210.5,364.1,209.8,362.8,208.5,362.5z"/>
	<path class="st9" d="M88.9,228.1c0.2-0.4,0.3-0.8,0.4-1.3c0.1-0.7,0.1-1.5,0.2-2.2c0.2-2.4,0.5-4.9,0.8-7.3
		c0.6-4.7,1.5-9.2,2.6-13.8c1.2-4.8,2.3-9.6,4.1-14.2c4.3-11.2,9.9-21.6,17-31.2c1.7-2.3,3.3-4.7,4.8-7.1c0.3-0.4,0.5-0.9,0.6-1.4
		c0.2-0.6,0.2-1.2-0.3-1.7c-0.5-0.5-1.2-0.5-1.7-0.2c-0.6,0.3-1.3,0.7-1.8,1.2c-0.9,0.8-1.7,1.7-2.4,2.6
		c-4.3,5.5-8.3,11.2-11.7,17.3c-3.4,6.1-6.5,12.3-8.9,18.8c-1.8,4.9-3.1,10-4.3,15c-1.9,7.8-3.1,15.8-3.6,23.8c0,0.4,0,0.7,0,1.1
		c0.1,1,0.9,1.7,1.9,1.9C87.5,229.4,88.5,229,88.9,228.1z"/>
	<path class="st9" d="M345.7,241.8c-0.9-0.3-1.9,0-2.5,0.8c-0.3,0.4-0.5,1-0.6,1.5c-0.2,1.4-0.4,2.8-0.6,4.1
		c-1.4,8.4-3.4,16.7-6.3,24.7c-3.3,9.1-7.3,17.8-11.8,26.4c-3.1,5.8-6.6,11.4-10.9,16.4c-0.7,0.8-1.4,1.6-2.1,2.5
		c-0.4,0.5-0.8,1.1-0.9,1.8c-0.2,1.4,0.9,2.5,2.3,2.1c0.6-0.2,1.3-0.5,1.8-1c0.7-0.6,1.3-1.2,1.9-1.9c3.5-3.9,6.5-8.1,9.1-12.6
		c5.5-9.5,10.1-19.5,14.1-29.7c3.5-9.1,5.9-18.6,7.5-28.3c0.2-1.5,0.4-3,0.6-4.4C347.3,243,346.7,242.1,345.7,241.8z"/>
	<path class="st9" d="M117.9,314.3c-9.1-11.4-16-23.9-20.9-37.6c-2.2-6.1-3.8-12.3-4.8-18.8c-0.6-4.5-1.2-9.1-1.8-13.6
		c-0.1-0.6-0.3-1.3-0.6-1.9c-0.3-0.7-0.9-1.2-1.8-1.1c-0.8,0-1.4,0.5-1.7,1.2c-0.2,0.6-0.4,1.3-0.4,1.9c0,1.2,0.1,2.4,0.3,3.6
		c0.3,2.8,0.8,5.5,1.1,8.3c0.6,4.8,1.5,9.5,2.8,14.1c4.4,15.2,11.3,29.2,20.6,42c1.8,2.5,3.8,4.8,5.6,7.2c0.5,0.6,1.1,1,1.8,1.1
		c1.2,0,2.1-0.7,2.4-1.7c0.2-0.8,0-1.5-0.5-2.2C119.3,316,118.6,315.1,117.9,314.3z"/>
	<path class="st9" d="M233.3,104.5c-0.3,1.2,0.3,2.3,1.5,2.8c0.3,0.1,0.7,0.2,1,0.3c1.3,0.3,2.7,0.5,4,0.8c8.8,2,17.3,4.7,25.6,8.1
		c12.3,5,23.6,11.7,33.1,21.2c0.3,0.3,0.7,0.6,1.1,0.8c1.4,0.6,2.9-0.3,3-1.9c-0.2-0.5-0.3-1-0.5-1.5c-0.3-0.5-0.6-0.9-0.9-1.3
		c-0.9-1-1.9-1.9-2.9-2.8c-6-5.4-12.6-10-19.8-13.7c-12.4-6.4-25.5-10.9-39.1-13.9c-1.2-0.3-2.3-0.5-3.5-0.7
		C234.7,102.6,233.6,103.4,233.3,104.5z"/>
	<path class="st9" d="M130.6,138.3c0.2-0.1,0.7-0.2,1.2-0.5c0.5-0.3,1-0.7,1.4-1c1.8-1.4,3.6-2.8,5.5-4.1
		c10.5-7.3,21.7-13.4,33.3-18.5c6.4-2.8,12.9-5,19.8-6.4c1.1-0.2,2.3-0.5,3.4-0.8c0.6-0.2,1.3-0.5,1.8-1c1.2-1.1,0.8-2.7-0.7-3.2
		c-0.5-0.2-1.1-0.2-1.6-0.1c-0.7,0-1.5,0.2-2.2,0.3c-7.1,1.3-14,3.3-20.7,6.2c-15.1,6.6-29.5,14.4-42.5,24.7c-0.4,0.3-0.7,0.6-1,1
		C127.5,136.5,128.6,138.3,130.6,138.3z"/>
	<path class="st9" d="M150.8,195.6c-3.6-1-7-2.2-10.3-3.8c-1.4-0.7-2.6-0.9-4.1-0.5c-1.7,0.4-3.3,0.9-4.7,2c-1.4,1-1.8,2.4-1.5,4.1
		c0.2,1.1,0.9,2,1.7,2.8c1.2,1.2,2.6,2.1,4,2.9c4.1,2.2,8.5,3.2,13.3,3.5c0.6,0,1.4,0,2.2-0.1c0.8-0.1,1.7-0.4,2.5-0.7
		c1.1-0.5,1.6-1.3,1.6-2.5c0-0.9-0.3-1.8-0.7-2.7c-0.7-1.5-1.7-2.8-2.7-4.1C151.7,196,151.4,195.7,150.8,195.6z"/>
	<path class="st9" d="M138.3,225.2c-0.4-0.4-0.9-0.7-1.5-0.8c-2.2-0.5-4.5-1.1-6.5-2c-1.2-0.6-2.2-0.4-3.3,0.1
		c-0.3,0.1-0.5,0.3-0.8,0.4c-2.5,1.4-3,3.9-1.3,6.2c0.6,0.8,1.3,1.5,2.1,2.1c3.5,2.6,7.5,4.1,12.4,4.2c0.5-0.1,1.6-0.2,2.6-0.4
		c1-0.2,1.5-1,1.6-2c0.1-0.6,0-1.2-0.3-1.7c-0.6-1-1.2-2.1-2-3C140.4,227.1,139.3,226.2,138.3,225.2z"/>
	<path class="st9" d="M303.1,206.3c-0.5,0-1,0-1.4,0.1c-2.1,0.5-4,1.2-5.9,2.2c-0.8,0.5-1.6,1-2.3,1.4c0.7,1.8,2.6,4.3,4.1,5.5
		c0.5,0.4,1,0.7,1.6,1c0.6,0.3,1.3,0.4,2,0.3c2.2-0.4,3.9-1.5,5-3.5c0.6-1.2,0.9-2.5,0.6-3.8C306.5,207.5,305.2,206.4,303.1,206.3z"
		/>
	<path class="st9" d="M287.8,156.8c-0.1-0.6-0.2-1.3-0.5-1.9c-0.4-1-1.3-1.3-2.3-0.8c-0.7,0.3-1.3,0.8-1.9,1.3
		c-2.6,2.6-3.9,5.7-3.8,9.4c0.1,2.5,1.6,4,3.6,5.1c0.1-0.1,0.2-0.2,0.3-0.3c1.4-2,2.6-4.2,3.5-6.5C287.5,161.1,288,159,287.8,156.8z
		"/>
	<path class="st9" d="M143.9,187.3c0,0,0.1-0.1,0.1-0.1c-0.6-0.8-1.2-1.7-1.9-2.4c-3.4-3.9-7.3-7.1-11.6-9.9c-1-0.7-2.2-1.2-3.4-1.6
		c-0.7-0.3-1.6-0.4-2.3-0.4c-0.5,0-1,0-1.3,0.5c-0.2,0.5,0.2,0.9,0.5,1.2c0.9,1,1.8,2,2.9,2.8c5.2,4,10.8,7.2,16.7,10
		C143.7,187.2,143.8,187.3,143.9,187.3z"/>
	<path class="st9" d="M186.1,154.5c0.6-1.6-0.3-3.4-1.5-4.1c-1.1-0.6-1.5-0.4-1.8,0.8c-0.5,2.2-0.3,4.5,0,6.9
		C184.4,157.1,185.5,156.1,186.1,154.5z"/>
	<path class="st9" d="M163.2,160.1c-0.3-0.3-0.8-0.5-1.2-0.6c-0.6-0.2-1.1,0.2-0.9,0.9c0.1,0.4,0.3,0.7,0.5,1c1.4,2,3.3,3.3,5.7,3.9
		C166.2,163.3,165,161.5,163.2,160.1z"/>
	<path class="st9" d="M163.2,294.6c-1.4,2.2-2.7,4.5-3.8,6.9c-1.3,2.8-2.3,5.6-2.7,8.6c-0.2,1.5-0.3,3,0.1,4.5
		c0.5,2,1.9,2.9,3.9,2.4c1-0.3,2-0.7,2.9-1.2c2.3-1.3,4.6-2.6,6.9-3.9c0.5-0.3,0.8-0.6,0.9-1.2c0.8-3.5,2-6.8,3.4-10.1
		c0.1-0.2,0.2-0.4,0.3-0.7c-4.2-1.2-8-3.2-11.6-5.6C163.4,294.4,163.3,294.5,163.2,294.6z"/>
	<path class="st9" d="M270.9,285.5c-0.5-1.3-1.4-2.2-2.8-2.7c-1.6-0.6-3.1,0.3-3.4,1.9c-0.1,0.7-0.2,1.4-0.1,2
		c0.3,3.5,1.4,6.7,3.1,9.7c0.1,0.1,0.2,0.2,0.3,0.4c1.4-1.3,2.4-2.7,3-4.5C271.8,290.1,271.9,287.8,270.9,285.5z"/>
	<path class="st9" d="M216.8,316.8c3.2-1.7,5.5-4.2,6.1-8c0.2-1.2,0.1-2.5-0.4-3.7c-0.5-1-1.3-1.3-2.3-0.7c-0.3,0.2-0.6,0.4-0.8,0.6
		c-0.5,0.7-1.1,1.4-1.5,2.2c-0.8,1.6-1.3,3.4-1.6,5.2c-0.3,1.5-0.5,3-0.3,4.5c0.1,0,0.2,0,0.3,0
		C216.5,316.9,216.6,316.9,216.8,316.8z"/>
	<path class="st9" d="M193.6,292.8c0.5-0.7,0.9-1.5,1-2.4c0-1.1-0.5-1.7-1.6-1.8c-0.7-0.1-1.3,0.1-2,0.4c-1.1,0.5-2,1.2-2.9,2.1
		c-1.4,1.3-2.4,2.9-3.5,4.5c-0.4,0.7-0.9,1.4-1.4,2.3c1.9,0,3.5-0.3,5.1-0.9C190.5,296.1,192.3,294.7,193.6,292.8z"/>
	<path class="st9" d="M233.4,290c-1.4-0.6-3.1,0-3.9,1.3c-0.9,1.7-0.9,3.4,0.5,4.5c2.2,1.7,4.5,1.8,7,0.9c0-0.1,0.1-0.2,0.1-0.2
		c-0.4-2.1-1.1-4-2.5-5.6C234.3,290.5,233.9,290.2,233.4,290z"/>
	<path class="st9" d="M197.8,270.5c0.5-0.7,1.1-1.4,1.5-2.2c0.7-1.4,1-3,1.2-4.6c0.5-3.5,0.4-7-0.2-10.5c-0.4-2.2-0.8-4.4-2-6.3
		c-0.4-0.7-1-1.3-1.6-1.9c-0.3-0.3-0.7-0.5-1.1-0.5c0.3,9,0.1,17.9,1.1,26.8C197.1,271.2,197.5,270.9,197.8,270.5z"/>
</g>
</svg>
